PathFileType	4	(X/Y/Z)	C:\Users\Biomechanik\SynologyDrive\AlexP\Athlete_03\Athlete_3_25_03_31\Walking_02\marker_experimental.trc
DataRate	CameraRate	NumFrames	NumMarkers	Units	OrigDataRate	OrigDataStartFrame	OrigNumFrames
200.000000	200.000000	4	53	mm	200.000000	246	493
Frame#	Time	GLAB			RFHD			LFHD			C7			T6			SPINMOL			SPINM2			SPINM3			T12			BELTOL			BELT2			BELT3			SACROL			SACR2			SACR3			LTHOL			LTH2			LTH3			LSHAOL			LSHA2			LSHA3			LHEE			LTOE			LM5			RTHOL			RTH2			RSHAOL			RSHA2			RSHA3			RHEE			RTOE			RM5			STRN			XIPH			LACR			LUAOL			LUA2			LUA3			LLAOL			LLA2			LLA3			LWRR			LWRU			RACR			RUAOL			RUA2			RUA3			RLAOL			RLA2			RLA3			RWRR			RWRU			RTH3			
		X1	Y1	Z1	X2	Y2	Z2	X3	Y3	Z3	X4	Y4	Z4	X5	Y5	Z5	X6	Y6	Z6	X7	Y7	Z7	X8	Y8	Z8	X9	Y9	Z9	X10	Y10	Z10	X11	Y11	Z11	X12	Y12	Z12	X13	Y13	Z13	X14	Y14	Z14	X15	Y15	Z15	X16	Y16	Z16	X17	Y17	Z17	X18	Y18	Z18	X19	Y19	Z19	X20	Y20	Z20	X21	Y21	Z21	X22	Y22	Z22	X23	Y23	Z23	X24	Y24	Z24	X25	Y25	Z25	X26	Y26	Z26	X27	Y27	Z27	X28	Y28	Z28	X29	Y29	Z29	X30	Y30	Z30	X31	Y31	Z31	X32	Y32	Z32	X33	Y33	Z33	X34	Y34	Z34	X35	Y35	Z35	X36	Y36	Z36	X37	Y37	Z37	X38	Y38	Z38	X39	Y39	Z39	X40	Y40	Z40	X41	Y41	Z41	X42	Y42	Z42	X43	Y43	Z43	X44	Y44	Z44	X45	Y45	Z45	X46	Y46	Z46	X47	Y47	Z47	X48	Y48	Z48	X49	Y49	Z49	X50	Y50	Z50	X51	Y51	Z51	X52	Y52	Z52	X53	Y53	Z53	

247	1.23	1055.239135742188	1561.194702148438	245.4141693115236	1003.402038574219	1585.320922851562	309.8453063964845	1014.819519042969	1588.39794921875	171.6350250244143	826.9585571289061	1406.8486328125	223.3062438964845	764.3912353515624	1241.075927734375	217.0840911865236	754.2855834960936	1201.311401367188	195.3754272460939	749.4393920898436	1193.56787109375	244.9566040039064	757.9508666992186	1136.890380859375	210.7301177978517	780.9006958007811	1070.045654296875	213.7130126953126	740.9458007812499	1036.675659179688	204.6805267333986	744.0886230468749	1032.860229492188	254.6978149414064	735.4561157226561	974.1244506835938	224.1295318603517	750.2144775390624	931.9985961914062	208.2809143066408	760.5144653320312	924.8668823242188	257.9301757812501	732.9454956054688	871.3561401367188	229.6038208007814	766.4396362304688	669.5897827148438	35.29101943969741	707.4945068359375	631.0855102539062	72.76612854003919	749.5441284179688	613.1557006835938	52.7175331115724	647.72021484375	331.8401794433594	59.77268218994153	580.6906127929688	290.2454833984376	72.43051910400402	628.3344116210938	273.5360412597657	71.08762359619152	494.4502563476562	111.0945587158203	167.6314239501954	701.4256591796875	42.18011856079106	163.4824218750001	653.8063354492188	32.19305801391606	63.01866912841809	928.9815063476561	635.4054565429689	397.0671691894533	1002.030517578125	607.1759643554689	412.8898925781252	1071.507690429688	314.8302001953126	388.9318237304689	1135.608276367188	269.4272460937501	395.0166931152346	1090.733154296875	258.1022644042969	376.4903869628909	1185.640502929688	49.03042221069343	285.0794372558596	1372.297729492188	145.301239013672	300.2072753906252	1341.723754882812	97.59690856933602	398.0141906738284	994.5884399414061	1299.780639648438	225.4697265625002	1005.069702148437	1156.08935546875	217.8818969726564	906.9575805664061	1373.146606445312	51.37601852417009	922.6508789062499	1228.65771484375	-58.35858154296858	922.2550659179686	1166.914428710938	-81.80118560790999	966.7463989257811	1179.712768554688	-58.90560531616193	1039.481689453125	996.0854492187501	-114.4381866455076	1047.149047851562	918.8231201171876	-97.95634460449199	1082.791137695312	953.0990600585939	-107.5955123901365	1162.506103515625	887.3274536132814	-97.90981292724588	1187.081665039062	921.1972045898439	-29.50254821777322	902.3295898437498	1353.335083007812	395.0605468750002	851.4440917968748	1209.273071289062	488.6734619140627	862.8114624023435	1144.72998046875	500.1126708984377	813.0961914062498	1157.580688476562	503.4846496582033	797.8754882812498	942.4089965820312	544.1639404296876	832.9898071289061	883.8187866210938	585.6672363281251	798.0645141601561	878.9585571289062	552.5318603515626	812.6990356445311	793.94580078125	579.1552734375001	863.0209350585936	765.5885620117188	520.4334106445314	964.9043579101561	586.3603515625001	387.5084533691408	
248	1.235	1062.598022460938	1560.550170898438	246.8574371337893	1010.761901855469	1584.5556640625	311.3337707519533	1022.134643554687	1587.824462890625	173.1281585693361	834.3772583007811	1406.159545898438	224.7002258300783	771.7950439453124	1240.44091796875	218.1750640869142	761.6434936523436	1200.723754882812	196.4019012451173	756.7873535156249	1192.915893554688	245.9788055419923	765.3162231445311	1136.266845703125	211.660842895508	788.2921752929686	1069.361328125	214.5033416748048	748.2421264648436	1035.90283203125	205.5776519775392	751.5205078124999	1032.008056640625	255.602752685547	742.8790893554686	973.2942504882812	224.9855041503908	757.6263427734374	931.225830078125	208.9725036621095	767.8189086914062	924.09228515625	258.6822204589845	740.4761962890625	870.5225830078125	230.2100677490236	772.9739990234375	669.48046875	35.62131881713881	714.0368041992188	631.1235961914062	73.283172607422	755.9442138671875	613.0801391601562	53.0257949829103	652.073974609375	332.8901367187501	59.58088684082043	584.5059814453125	292.1429748535157	72.17812347412121	631.9533081054688	274.8279724121094	70.95796203613293	495.9914855957031	114.385368347168	167.2465820312501	701.7070922851562	41.95117950439457	163.4705657958986	654.2275390625	32.32151031494145	62.97909927368176	937.6247558593749	635.2916870117189	397.8460998535158	1010.903869628906	607.3157348632814	413.0047912597658	1078.654174804688	314.3709716796876	389.0326538085939	1142.358764648438	268.4280395507813	394.9614562988284	1097.37451171875	257.5171203613282	376.4803161621096	1190.343505859375	48.14184188842781	285.0583496093752	1377.656494140625	142.4935760498048	299.1846618652346	1347.234619140625	95.20388031005868	397.2218322753909	1002.003601074219	1299.02587890625	226.5420837402345	1012.446716308594	1155.3525390625	218.7126617431643	914.2218017578124	1372.698852539062	52.62460327148455	929.5225830078124	1228.201416015625	-57.17148590087874	928.9038696289061	1166.453735351562	-80.58642578124983	973.5215454101561	1179.169799804688	-57.88080978393537	1045.910278320312	995.4602050781251	-113.4475936889646	1053.626098632812	918.2243652343751	-96.86912536621074	1089.239501953125	952.4801025390626	-106.6659011840818	1168.985229492188	886.7302246093751	-97.08766937255838	1193.755981445312	920.6956787109376	-28.82577323913552	909.8869628906248	1352.2841796875	396.2959594726564	859.0072021484373	1208.025634765625	489.6124267578127	870.3479003906248	1143.476196289062	500.9111633300783	820.6414794921873	1156.33349609375	504.3555603027345	805.242492675781	941.1146240234375	544.5698852539064	840.2846679687499	882.3643188476562	585.9594726562501	805.3952636718749	877.6279907226562	552.8059082031251	819.9232788085936	792.5519409179688	579.2597656250001	870.1512451171874	764.232666015625	520.4596557617189	973.5815429687499	586.3761596679689	388.1716308593752	
249	1.24	1069.97021484375	1559.973266601562	248.3119964599611	1018.13671875	1583.863891601562	312.8330078125002	1029.460571289062	1587.312377929688	174.631546020508	841.8110961914061	1405.528686523438	226.1228027343751	779.2273559570311	1239.8583984375	219.2810211181642	769.0327758789061	1200.18896484375	197.4418182373048	764.1619873046874	1192.315795898438	247.0130310058595	772.7198486328124	1135.695068359375	212.6064910888673	795.7332763671874	1068.729370117188	215.3130645751955	755.6094970703124	1035.14599609375	206.4665679931642	759.0104980468749	1031.183471679688	256.5010070800782	750.3801879882811	972.4851684570312	225.8413696289064	765.1087646484374	930.4752807617188	209.652297973633	775.1526489257812	923.3663330078125	259.4425354003908	748.0997924804688	869.7097778320312	230.8139038085939	779.6873779296875	669.3660888671875	35.9687652587892	720.7653198242188	631.1400146484375	73.81092834472669	762.5375366210938	612.9957885742188	53.353542327881	656.6148071289062	333.9902343750001	59.37858200073254	588.5071411132812	294.1185913085938	71.91909027099621	635.745849609375	276.1873474121094	70.81645965576183	497.7168273925781	117.8411483764649	166.8576202392579	701.9779052734375	41.70053482055668	163.4699554443361	654.6848754882812	32.46244430541996	62.93223953247082	946.3613891601561	635.3050537109376	398.6595458984377	1019.869506835937	607.5744018554689	413.1007080078127	1085.662231445312	313.9857482910157	389.1484985351565	1148.901489257812	267.4055175781251	394.8923950195315	1103.781372070312	256.9765930175782	376.4789123535159	1194.4013671875	47.27133560180671	284.9828796386721	1382.547607421875	139.1722869873048	298.1953430175784	1352.107788085938	92.4323272705079	396.4373474121096	1009.444030761719	1298.341064453125	227.6501159667971	1019.866516113281	1154.691772460938	219.5859069824221	921.5267944335936	1372.310913085938	53.90604400634783	936.4282836914061	1227.808471679688	-55.95775985717756	935.5504150390624	1166.057495117188	-79.3267517089842	980.3045043945311	1178.669067382812	-56.8218574523924	1052.253662109375	994.8413085937501	-112.4390792846678	1059.982543945312	917.6302490234376	-95.76681518554668	1095.581909179688	951.8439941406251	-105.7243499755857	1175.32763671875	886.0710449218751	-96.26647949218729	1200.314453125	920.1176147460939	-28.14726638793923	917.466613769531	1351.288208007812	397.5613403320314	866.624816894531	1206.814331054688	490.5812377929689	877.948791503906	1142.258422851562	501.7303771972658	828.250549316406	1155.117309570312	505.2615356445314	812.716125488281	939.8407592773438	544.9895629882814	847.7034301757811	880.931640625	586.2549438476564	812.8532104492186	876.3152465820312	553.0863647460939	827.2943115234374	791.1814575195312	579.3619995117189	877.4205932617186	762.9177856445312	520.4711303710939	982.3401489257811	586.5062255859376	388.8734741210939	
250	1.245	1077.35498046875	1559.466674804688	249.7748870849611	1025.526611328125	1583.249633789062	314.3405151367189	1036.79638671875	1586.864990234375	176.142288208008	849.2568969726561	1404.960571289062	227.5731048583986	786.6868286132811	1239.331298828125	220.4028930664064	776.4530029296874	1199.70947265625	198.4961700439455	771.5646362304686	1191.769165039062	248.0599212646486	780.1623535156249	1135.177856445312	213.5682830810548	803.2250366210936	1068.153198242188	216.1430664062501	763.0576782226561	1034.40771484375	207.3433074951173	766.5648193359374	1030.389892578125	257.3881225585939	757.9684448242186	971.7005004882812	226.6931610107423	772.6634521484374	929.7537841796875	210.3201446533205	782.522705078125	922.6963500976562	260.2083740234377	755.8190307617188	868.9254150390625	231.4181518554689	786.5813598632812	669.2491455078125	36.33558273315444	727.6862182617188	631.1354370117188	74.356414794922	769.3283081054688	612.9042358398438	53.70322799682631	661.3511962890625	335.1438598632813	59.16583633422864	592.7052001953125	296.1744384765626	71.66012573242199	639.7224731445312	277.6170043945313	70.66418457031261	499.6532897949218	121.4652175903321	166.4733276367188	702.2321166992188	41.42724227905278	163.4842987060548	655.1797485351562	32.61789321899418	62.87982559204114	955.1481323242186	635.4369506835939	399.4998474121095	1028.87744140625	607.9356079101564	413.1825561523439	1092.5341796875	313.6755676269532	389.2838134765627	1155.247924804688	266.3838500976563	394.8197937011721	1109.973388671875	256.4877014160157	376.4928894042971	1197.887573242188	46.45703125000007	284.8676452636721	1387.021118164062	135.4105987548829	297.2487792968752	1356.410522460938	89.3367233276368	395.6682434082034	1016.907531738281	1297.732055664062	228.7932128906252	1027.330444335938	1154.114379882812	220.5020599365236	928.8693237304686	1371.984008789062	55.2188682556154	943.3687133789061	1227.48046875	-54.71821975707991	942.1979980468749	1165.727905273438	-78.0255050659178	987.0963745117186	1178.21240234375	-55.72714614868146	1058.513916015625	994.2313842773439	-111.4136123657225	1066.2197265625	917.0435180664064	-94.65201568603496	1101.820068359375	951.1932983398439	-104.7720489501951	1181.534423828125	885.3526000976564	-95.44860076904276	1206.756591796875	919.4636840820314	-27.46675109863259	925.0651245117185	1350.35205078125	398.8560791015627	874.2948608398435	1205.643310546875	491.5794677734377	885.612854003906	1141.080932617188	502.570037841797	835.9219970703123	1153.935668945312	506.2023315429689	820.2973022460935	938.5901489257812	545.4226684570314	855.2467651367186	879.5243530273438	586.5529174804689	820.4368286132811	875.0242919921875	553.3735351562501	834.8121948242186	789.8380737304688	579.4622802734376	884.8293457031249	761.647705078125	520.4675292968751	991.1337890624999	586.7374877929689	389.6089782714845	
